<?xml version="1.0" encoding="UTF-8" standalone="no"?>
<!-- Created with Inkscape (http://www.inkscape.org/) -->

<svg
   xmlns:dc="http://purl.org/dc/elements/1.1/"
   xmlns:cc="http://creativecommons.org/ns#"
   xmlns:rdf="http://www.w3.org/1999/02/22-rdf-syntax-ns#"
   xmlns:svg="http://www.w3.org/2000/svg"
   xmlns="http://www.w3.org/2000/svg"
   xmlns:sodipodi="http://sodipodi.sourceforge.net/DTD/sodipodi-0.dtd"
   xmlns:inkscape="http://www.inkscape.org/namespaces/inkscape"
   width="239.29466"
   height="64.55423"
   viewBox="0 0 63.313379 17.079974"
   version="1.1"
   id="svg8858"
   inkscape:version="0.92.2 (5c3e80d, 2017-08-06)"
   sodipodi:docname="Logo Arts et Métiers.svg">
  <defs
     id="defs8852" />
  <sodipodi:namedview
     id="base"
     pagecolor="#ffffff"
     bordercolor="#666666"
     borderopacity="1.0"
     inkscape:pageopacity="0.0"
     inkscape:pageshadow="2"
     inkscape:zoom="3.959798"
     inkscape:cx="80.335274"
     inkscape:cy="3.1342625"
     inkscape:document-units="mm"
     inkscape:current-layer="layer1"
     showgrid="false"
     units="px"
     fit-margin-top="5"
     fit-margin-left="5"
     fit-margin-right="5"
     fit-margin-bottom="5"
     inkscape:window-width="1600"
     inkscape:window-height="837"
     inkscape:window-x="-8"
     inkscape:window-y="-8"
     inkscape:window-maximized="1" />
  <metadata
     id="metadata8855">
    <rdf:RDF>
      <cc:Work
         rdf:about="">
        <dc:format>image/svg+xml</dc:format>
        <dc:type
           rdf:resource="http://purl.org/dc/dcmitype/StillImage" />
        <dc:title></dc:title>
      </cc:Work>
    </rdf:RDF>
  </metadata>
  <g
     inkscape:label="Calque 1"
     inkscape:groupmode="layer"
     id="layer1"
     transform="translate(-88.539738,-136.51388)">
    <path
       d="m 119.841,142.13645 -0.25259,-0.75389 h -1.51659 l -0.25576,0.75389 h -0.8696 l 1.55258,-4.26544 h 0.65228 l 1.55716,4.26544 z m -0.99624,-3.00708 -0.53799,1.55293 h 1.06116 l -0.52317,-1.55293"
       style="fill:#f68712;fill-opacity:1;fill-rule:nonzero;stroke:none;stroke-width:0.35277775"
       id="path8632"
       inkscape:connector-curvature="0" />
    <path
       d="m 123.20156,142.13645 -0.83361,-1.70074 h -0.59972 v 1.70074 h -0.83362 v -4.26544 h 1.67429 c 0.86818,0 1.38289,0.59338 1.38289,1.3074 0,0.59831 -0.36513,0.97014 -0.7807,1.12007 l 0.95497,1.83797 z m -0.6484,-3.52143 h -0.78493 v 1.12642 h 0.78493 c 0.36653,0 0.60642,-0.23389 0.60642,-0.56303 0,-0.33055 -0.23989,-0.56339 -0.60642,-0.56339"
       style="fill:#f68712;fill-opacity:1;fill-rule:nonzero;stroke:none;stroke-width:0.35277775"
       id="path8636"
       inkscape:connector-curvature="0" />
    <path
       d="m 126.18289,138.61502 v 3.52143 h -0.83291 v -3.52143 h -1.1116 v -0.744 h 3.05999 v 0.744 h -1.11548"
       style="fill:#f68712;fill-opacity:1;fill-rule:nonzero;stroke:none;stroke-width:0.35277775"
       id="path8640"
       inkscape:connector-curvature="0" />
    <path
       d="m 128.8513,142.17138 c -0.64876,0 -1.13947,-0.13582 -1.55893,-0.56163 l 0.5394,-0.53798 c 0.26988,0.26811 0.63606,0.35913 1.03082,0.35913 0.49107,0 0.75424,-0.18451 0.75424,-0.52776 0,-0.15134 -0.0406,-0.27552 -0.13159,-0.35878 -0.084,-0.079 -0.17956,-0.11994 -0.37888,-0.15028 l -0.51329,-0.0723 c -0.36513,-0.0547 -0.63465,-0.16792 -0.82621,-0.35101 -0.2039,-0.20567 -0.30656,-0.4819 -0.30656,-0.84138 0,-0.75988 0.56232,-1.29257 1.48555,-1.29257 0.58772,0 1.01282,0.14358 1.37795,0.49494 l -0.52564,0.52247 c -0.27023,-0.25612 -0.59408,-0.29316 -0.8763,-0.29316 -0.44239,0 -0.65829,0.24588 -0.65829,0.53904 0,0.10901 0.0346,0.22296 0.12559,0.30516 0.0861,0.0783 0.22119,0.14287 0.39546,0.16933 l 0.50165,0.0695 c 0.39053,0.0543 0.63606,0.16404 0.81563,0.32984 0.22825,0.21626 0.32949,0.52741 0.32949,0.90523 0,0.82726 -0.68686,1.29223 -1.58009,1.29223"
       style="fill:#f68712;fill-opacity:1;fill-rule:nonzero;stroke:none;stroke-width:0.35277775"
       id="path8644"
       inkscape:connector-curvature="0" />
    <path
       d="m 120.76316,147.10427 v -4.26544 h 2.80847 v 0.74295 h -1.97697 v 1.00154 h 1.68346 v 0.74083 h -1.68346 v 1.03787 h 1.97697 v 0.74225 h -2.80847"
       style="fill:#841960;fill-opacity:1;fill-rule:nonzero;stroke:none;stroke-width:0.35277775"
       id="path8648"
       inkscape:connector-curvature="0" />
    <path
       d="m 125.71934,143.58178 v 3.52249 h -0.83396 v -3.52249 h -1.11619 v -0.74295 h 3.0614 v 0.74295 h -1.11125"
       style="fill:#841960;fill-opacity:1;fill-rule:nonzero;stroke:none;stroke-width:0.35277775"
       id="path8652"
       inkscape:connector-curvature="0" />
    <path
       d="m 131.32992,147.10427 v -2.48673 l -0.81457,1.61642 h -0.56197 l -0.82268,-1.61642 v 2.48673 h -0.83255 v -4.26544 h 0.82126 l 1.11407,2.30576 1.10878,-2.30576 h 0.81986 v 4.26544 h -0.8322"
       style="fill:#841960;fill-opacity:1;fill-rule:nonzero;stroke:none;stroke-width:0.35277775"
       id="path8656"
       inkscape:connector-curvature="0" />
    <path
       d="m 132.85815,147.10427 v -4.26544 h 2.80987 v 0.74295 h -1.97696 v 1.00154 h 1.68204 v 0.74083 h -1.68204 v 1.03787 h 1.97696 v 0.74225 h -2.80987"
       style="fill:#841960;fill-opacity:1;fill-rule:nonzero;stroke:none;stroke-width:0.35277775"
       id="path8660"
       inkscape:connector-curvature="0" />
    <path
       d="m 137.81221,143.58178 v 3.52249 h -0.83291 v -3.52249 h -1.11513 v -0.74295 h 3.06211 v 0.74295 h -1.11407"
       style="fill:#841960;fill-opacity:1;fill-rule:nonzero;stroke:none;stroke-width:0.35277775"
       id="path8664"
       inkscape:connector-curvature="0" />
    <path
       d="m 139.30446,147.10427 h 0.83044 v -4.26544 h -0.83044 z"
       style="fill:#841960;fill-opacity:1;fill-rule:nonzero;stroke:none;stroke-width:0.35277775"
       id="path8666"
       inkscape:connector-curvature="0" />
    <path
       d="m 140.83093,147.10427 v -4.26544 h 2.80881 v 0.74295 h -1.97661 v 1.00154 h 1.68381 v 0.74083 h -1.68381 v 1.03787 h 1.97661 v 0.74225 h -2.80881"
       style="fill:#841960;fill-opacity:1;fill-rule:nonzero;stroke:none;stroke-width:0.35277775"
       id="path8670"
       inkscape:connector-curvature="0" />
    <path
       d="m 146.42069,147.10427 -0.8322,-1.7011 h -0.60007 v 1.7011 h -0.83256 v -4.26544 h 1.67182 c 0.86818,0 1.38394,0.59267 1.38394,1.30387 0,0.60078 -0.36512,0.97225 -0.77999,1.12077 l 0.95462,1.8408 z m -0.64699,-3.52249 h -0.78528 v 1.12607 h 0.78528 c 0.36583,0 0.60502,-0.23319 0.60502,-0.56515 0,-0.32773 -0.23919,-0.56092 -0.60502,-0.56092"
       style="fill:#841960;fill-opacity:1;fill-rule:nonzero;stroke:none;stroke-width:0.35277775"
       id="path8674"
       inkscape:connector-curvature="0" />
    <path
       d="m 148.9494,147.1399 c -0.6484,0 -1.13806,-0.13829 -1.55786,-0.56374 l 0.5394,-0.53869 c 0.26881,0.26952 0.63394,0.35877 1.02693,0.35877 0.49318,0 0.75706,-0.18591 0.75706,-0.52634 0,-0.14958 -0.042,-0.27587 -0.13017,-0.35948 -0.0854,-0.0794 -0.18062,-0.1203 -0.37888,-0.1517 l -0.514,-0.0709 c -0.36513,-0.0536 -0.63606,-0.16722 -0.82833,-0.35172 -0.20249,-0.20497 -0.30374,-0.48084 -0.30374,-0.84067 0,-0.76094 0.56268,-1.29188 1.48414,-1.29188 0.58843,0 1.01141,0.14253 1.37795,0.49672 l -0.52776,0.5207 c -0.27022,-0.25718 -0.59266,-0.29457 -0.87312,-0.29457 -0.44309,0 -0.66075,0.24553 -0.66075,0.5408 0,0.1076 0.0374,0.22084 0.12558,0.30516 0.0847,0.0769 0.22331,0.14252 0.39759,0.16686 l 0.50235,0.072 c 0.38982,0.0547 0.63289,0.16192 0.81421,0.32985 0.22895,0.21448 0.3302,0.5274 0.3302,0.90452 0,0.82761 -0.68897,1.29434 -1.5808,1.29434"
       style="fill:#841960;fill-opacity:1;fill-rule:nonzero;stroke:none;stroke-width:0.35277775"
       id="path8678"
       inkscape:connector-curvature="0" />
    <path
       d="m 134.6358,141.11304 -0.33832,0.57609 -0.34043,0.57608 0.774,-7.1e-4 0.67768,-1.15147 h -0.77293"
       style="fill:#841960;fill-opacity:1;fill-rule:nonzero;stroke:none;stroke-width:0.35277775"
       id="path8682"
       inkscape:connector-curvature="0" />
    <path
       d="m 113.51252,145.05322 -9.70068,-0.001 4.25062,7.21572 9.70068,0.003 -4.25062,-7.21713"
       style="fill:#841960;fill-opacity:1;fill-rule:nonzero;stroke:none;stroke-width:0.35277775"
       id="path8686"
       inkscape:connector-curvature="0" />
    <path
       d="m 94.113274,145.05322 9.698566,-0.001 -4.248502,7.21572 -9.700683,0.003 4.250619,-7.21713"
       style="fill:#841960;fill-opacity:1;fill-rule:nonzero;stroke:none;stroke-width:0.35277775"
       id="path8690"
       inkscape:connector-curvature="0" />
    <path
       d="m 103.81184,145.05181 4.25062,-7.21501 -9.701391,7e-4 -4.247797,7.21572 9.698568,-0.001"
       style="fill:#f68712;fill-opacity:1;fill-rule:nonzero;stroke:none;stroke-width:0.35277775"
       id="path8694"
       inkscape:connector-curvature="0" />
    <path
       d="m 121.3583,148.41519 c 0.20673,-0.0109 0.69744,-0.0162 0.99589,0.007 0.5461,0.0402 0.78035,0.3496 0.78035,0.74048 0,0.51153 -0.40146,0.87489 -1.09114,0.93063 -0.23425,0.018 -0.51153,0.018 -0.6851,0 z m 0,1.90535 c 0.17357,0 0.6223,0.0388 0.93239,-0.012 0.97508,-0.16227 1.47709,-0.47872 1.47709,-1.17439 0,-0.69533 -0.43956,-0.94404 -1.77977,-0.94404 h -1.23472 v 3.93594 c 0.0974,-0.007 0.20003,-0.0148 0.30339,-0.0148 0.0977,0 0.19297,0.008 0.30162,0.0148 v -1.80551"
       style="fill:#7b7979;fill-opacity:1;fill-rule:nonzero;stroke:none;stroke-width:0.35277775"
       id="path8698"
       inkscape:connector-curvature="0" />
    <path
       d="m 125.51473,150.82748 c 0,0.15946 0.0109,0.26071 -0.0127,0.41981 -0.0529,0.36124 -0.33549,0.75706 -0.80328,0.78211 -0.39334,0.0257 -0.58032,-0.28469 -0.54786,-0.56939 0.0642,-0.63923 0.3108,-0.55985 1.0675,-0.79269 l 0.29634,-0.0928 z m 0,-0.38876 -0.10901,0.0427 c -0.25153,0.0977 -0.24448,0.0854 -0.70697,0.18592 -0.5401,0.11606 -1.09961,0.18626 -1.12924,0.80468 -0.0152,0.39018 0.39335,0.68792 0.85443,0.71367 0.45402,0.0226 0.90875,-0.17533 1.05622,-0.55351 v 0.47908 h 0.90734 v -0.1069 h -0.31291 v -1.72825 c 0,-0.45791 -0.0804,-0.88477 -1.06292,-0.92605 -0.26811,-0.0162 -0.22825,0.008 -0.42051,0.0339 -0.2219,0.0314 -0.4311,0.0995 -0.58068,0.15452 v 0.83115 h 0.13371 l 0.16474,-0.34714 c 0.14041,-0.29739 0.16052,-0.61877 0.64347,-0.57714 0.48154,0.0444 0.56233,0.30938 0.56233,0.59478 v 0.39864"
       style="fill:#7b7979;fill-opacity:1;fill-rule:nonzero;stroke:none;stroke-width:0.35277775"
       id="path8702"
       inkscape:connector-curvature="0" />
    <path
       d="m 128.24522,152.11124 h -1.34584 v -0.10689 h 0.33619 v -2.47791 h -0.35136 v -0.11113 h 0.87101 v 0.56339 c 0.0374,-0.20355 0.34784,-0.58244 0.84067,-0.58244 0.1397,0 0.2674,0.0332 0.40922,0.0935 v 0.97896 h -0.14182 l -0.17992,-0.45261 c -0.12558,-0.31645 -0.22119,-0.52141 -0.41557,-0.42792 -0.50412,0.24165 -0.46214,0.82267 -0.46214,1.36877 v 1.0474 h 0.43956 v 0.10689"
       style="fill:#7b7979;fill-opacity:1;fill-rule:nonzero;stroke:none;stroke-width:0.35277775"
       id="path8706"
       inkscape:connector-curvature="0" />
    <path
       d="m 129.32544,152.11124 v -0.10689 h 0.34184 v -2.47791 h -0.31891 v -0.11113 h 0.89923 v 2.58904 h 0.30444 v 0.10689 h -1.2266"
       style="fill:#7b7979;fill-opacity:1;fill-rule:nonzero;stroke:none;stroke-width:0.35277775"
       id="path8710"
       inkscape:connector-curvature="0" />
    <path
       d="m 132.87684,150.0475 c -0.14076,-0.42193 -0.28257,-0.5895 -0.66781,-0.5895 -0.33478,0 -0.75706,0.11219 -0.7881,0.45121 -0.0236,0.3048 0.35736,0.43109 0.69991,0.52246 0.57962,0.16545 1.25624,0.33902 1.23261,0.87736 -0.0152,0.51682 -0.52776,0.89253 -1.22485,0.883 -0.40322,-0.006 -0.85513,-0.13688 -1.01177,-0.23072 v -0.88582 h 0.13371 l 0.15734,0.4445 c 0.16863,0.50341 0.36089,0.50941 0.66745,0.53516 0.42369,0.0377 0.90664,-0.13652 0.94333,-0.48471 0.0504,-0.42828 -0.63112,-0.53693 -1.06327,-0.67028 -0.30304,-0.0917 -0.89853,-0.25929 -0.89853,-0.76553 0,-0.59619 0.77329,-0.79375 1.1811,-0.79375 0.34326,0 0.7366,0.11113 0.87842,0.18556 v 0.81386 h -0.14182 l -0.0977,-0.2928"
       style="fill:#7b7979;fill-opacity:1;fill-rule:nonzero;stroke:none;stroke-width:0.35277775"
       id="path8714"
       inkscape:connector-curvature="0" />
    <path
       d="m 134.84111,152.1363 c -0.11218,-0.007 -0.20531,-0.008 -0.30374,-0.008 -0.10054,0 -0.20532,7.1e-4 -0.29986,0.008 v -3.67277 c -0.6985,0 -1.12113,0.0339 -1.51306,0.0688 0.006,-0.0561 0.0226,-0.11465 0.0226,-0.17216 0,-0.0568 -0.0162,-0.10689 -0.0226,-0.17003 h 3.56094 c -0.008,0.0631 -0.0187,0.11324 -0.0187,0.17003 0,0.0575 0.0102,0.11607 0.0187,0.17216 -0.34749,-0.0349 -0.83185,-0.0688 -1.44428,-0.0688 v 3.67277"
       style="fill:#7b7979;fill-opacity:1;fill-rule:nonzero;stroke:none;stroke-width:0.35277775"
       id="path8718"
       inkscape:connector-curvature="0" />
    <path
       d="m 136.36723,150.04009 c 0.0519,-0.29598 0.29069,-0.58209 0.61595,-0.59479 0.39687,-0.0159 0.54504,0.32985 0.55069,0.63994 l 0.008,0.28893 h -1.23331 z m 1.80728,1.06539 h -0.14182 l -0.008,0.0748 c -0.0349,0.37147 -0.34219,0.90593 -0.9211,0.87488 -0.65299,-0.0317 -0.79516,-0.60219 -0.79516,-1.24671 v -0.31539 h 1.85702 c 0.0674,-0.57008 -0.40852,-1.17086 -1.15147,-1.16487 -0.76764,0.0127 -1.28481,0.65052 -1.33103,1.40617 -0.0427,0.82445 0.57256,1.46297 1.37654,1.45133 0.63042,-0.013 1.06257,-0.47872 1.10596,-0.99271 l 0.009,-0.0875"
       style="fill:#7b7979;fill-opacity:1;fill-rule:nonzero;stroke:none;stroke-width:0.35277775"
       id="path8722"
       inkscape:connector-curvature="0" />
    <path
       d="m 140.83904,150.43167 -0.073,-0.22366 c -0.16122,-0.53834 -0.3563,-0.77858 -0.69815,-0.78634 -0.72143,-0.013 -0.83961,0.76799 -0.82585,1.35749 0.0162,0.54257 0.0755,1.24424 0.83291,1.25024 0.4452,0.007 0.72143,-0.34784 0.79516,-0.72496 l 0.0399,-0.19896 h 0.13229 l -0.0212,0.13723 c -0.11112,0.71155 -0.58243,0.93556 -1.10137,0.92992 -0.83891,-0.007 -1.31586,-0.73695 -1.31586,-1.43193 0,-0.7246 0.55668,-1.39982 1.42628,-1.43298 0.22401,-0.004 0.60925,0.0145 0.95144,0.18203 v 0.94192 h -0.14252"
       style="fill:#7b7979;fill-opacity:1;fill-rule:nonzero;stroke:none;stroke-width:0.35277775"
       id="path8726"
       inkscape:connector-curvature="0" />
    <path
       d="m 143.15079,152.11124 v -0.10689 h 0.39617 v -1.77729 c 0,-0.35349 0.005,-0.70626 -0.42581,-0.69356 -0.6223,0.0166 -0.70414,0.74718 -0.70414,1.29398 v 1.17687 h 0.42369 v 0.10689 h -1.30034 v -0.10689 h 0.3115 v -3.43711 h -0.33267 v -0.11289 h 0.89782 v 1.40758 c 0.0882,-0.23636 0.46778,-0.52105 0.86995,-0.49248 0.60043,0.0459 0.80963,0.25612 0.80963,0.82656 v 1.80834 h 0.32879 v 0.10689 h -1.27459"
       style="fill:#7b7979;fill-opacity:1;fill-rule:nonzero;stroke:none;stroke-width:0.35277775"
       id="path8730"
       inkscape:connector-curvature="0" />
    <path
       d="m 130.26241,148.52526 c 0,0.17356 -0.17004,0.29704 -0.36371,0.29704 -0.18662,0 -0.35737,-0.13441 -0.35737,-0.28999 0,-0.15487 0.16263,-0.30374 0.34996,-0.30374 0.20108,0 0.37112,0.13441 0.37112,0.29669"
       style="fill:#7b7979;fill-opacity:1;fill-rule:nonzero;stroke:none;stroke-width:0.35277775"
       id="path8734"
       inkscape:connector-curvature="0" />
  </g>
</svg>
